# xmcd
#
# Track frame offsets: 
#        182
#        2947
#        20937
#        33045
#        51650
#        66640
#        82942
#        96477
#        113075
#        131020
#
# Disc length: 2306 seconds
#
# Revision: 0
# Processed by: cddbd v1.5.1PL0 Copyright (c) Steve Scherf et al.
# Submitted via: ExactAudioCopy v0.95a4
#
DISCID=8d09000a
DTITLE=Jerry Lee Lewis - The Locust Years - Disc 7
DYEAR=1900
DGENRE=Country
TTITLE0=Intro (Panther Hall, Fort Worth, Texas, August 20, 1966, First
TTITLE0=Show)
TTITLE1=Little Queenie
TTITLE2=Blue Suede Shoes
TTITLE3=How's My Ex Treating You
TTITLE4=Johnny B. Goode
TTITLE5=Crazy Arms
TTITLE6=Green Green Grass Of Home
TTITLE7=Lovin' Up A Storm
TTITLE8=Mean Woman Blues
TTITLE9=What'd I Say, part 1 and 2 - Closing
EXTD=
EXTT0=
EXTT1=
EXTT2=
EXTT3=
EXTT4=
EXTT5=
EXTT6=
EXTT7=
EXTT8=
EXTT9=
PLAYORDER=
